<svg version="1.1" id="Layer_1" xmlns="http://www.w3.org/2000/svg" xmlns:xlink="http://www.w3.org/1999/xlink" x="0px" y="0px"
	 width="100%" viewBox="0 0 1890 1890" enable-background="new 0 0 1890 1890" xml:space="preserve">
<path fill="#FFFFFF" opacity="1.000000" stroke="none" 
	d="
M1006.000000,1891.000000 
	C670.666687,1891.000000 335.833344,1891.000000 1.000000,1891.000000 
	C1.000000,1261.000000 1.000000,631.000000 1.000000,1.000000 
	C631.000000,1.000000 1261.000000,1.000000 1891.000000,1.000000 
	C1891.000000,631.000000 1891.000000,1261.000000 1891.000000,1891.000000 
	C1596.166626,1891.000000 1301.333374,1891.000000 1006.000000,1891.000000 
M1211.612305,1109.803955 
	C1211.422241,1109.164917 1211.232300,1108.525879 1210.763916,1107.265015 
	C1206.017212,1103.517944 1201.235107,1099.814941 1196.531006,1096.015259 
	C1185.437500,1087.054321 1174.419189,1077.999512 1163.298706,1069.072144 
	C1152.454956,1060.366821 1141.510742,1051.786621 1130.631714,1043.124878 
	C1120.901123,1035.377319 1111.186279,1027.609741 1101.488281,1019.821228 
	C1090.884766,1011.305481 1080.302490,1002.763367 1069.722168,994.218872 
	C1058.505127,985.160217 1047.307129,976.078125 1036.089966,967.019714 
	C1026.703491,959.439575 1017.301575,951.878662 1007.639893,944.094482 
	C1040.718628,918.986145 1073.561401,894.253967 1106.186279,869.237549 
	C1138.814819,844.218384 1171.934937,819.820435 1203.777954,793.713623 
	C1168.823486,793.000610 1134.350708,792.983398 1099.877930,793.056641 
	C1098.321655,793.059937 1096.467773,793.483032 1095.263672,794.389526 
	C1090.032227,798.328125 1085.019531,802.555542 1079.874023,806.610046 
	C1067.800903,816.123352 1055.680542,825.576904 1043.610229,835.093628 
	C1032.038818,844.216858 1020.519470,853.405823 1008.953369,862.535645 
	C996.886230,872.060974 984.778015,881.534058 972.711060,891.059509 
	C959.476685,901.506531 946.287109,912.010376 933.041748,922.443359 
	C926.702393,927.436707 920.279236,932.323730 912.830444,938.080933 
	C912.830444,888.821594 912.830444,840.980286 912.830444,793.263794 
	C886.608276,793.263794 861.006409,793.263794 835.292542,793.263794 
	C835.292542,898.902100 835.292542,1004.276367 835.292542,1109.661377 
	C861.306091,1109.661377 887.025635,1109.661377 913.074646,1109.661377 
	C913.074646,1057.097290 913.074646,1004.870544 913.074646,952.224121 
	C914.339722,952.804871 915.354248,953.035461 916.061646,953.630920 
	C924.985901,961.143005 933.855347,968.720154 942.759827,976.255676 
	C953.541992,985.380127 964.314331,994.516541 975.145813,1003.582214 
	C986.844788,1013.374146 998.624939,1023.068970 1010.336060,1032.846436 
	C1019.035461,1040.109619 1027.644043,1047.481812 1036.360352,1054.724609 
	C1047.456299,1063.944702 1058.669678,1073.024048 1069.739746,1082.275024 
	C1078.945190,1089.967651 1087.944458,1097.908447 1097.198975,1105.540527 
	C1099.482544,1107.423828 1102.395386,1109.792969 1105.032837,1109.810059 
	C1140.353516,1110.038940 1175.676636,1109.889526 1211.612305,1109.803955 
M816.072144,335.025543 
	C791.042053,335.072540 766.012024,335.119568 740.475708,335.113678 
	C740.372681,335.402222 740.269592,335.690765 740.025696,336.909790 
	C740.017212,480.617035 740.008423,624.324280 740.007202,768.031555 
	C740.007202,769.027039 740.111206,770.022583 740.113831,771.524170 
	C740.402344,771.627258 740.690857,771.730347 741.909790,771.974304 
	C766.945862,771.927307 791.981995,771.880371 817.524109,771.886169 
	C817.627197,771.597656 817.730286,771.309143 817.974304,770.090210 
	C817.597412,721.298218 819.618042,672.452759 814.941223,623.757202 
	C814.098816,614.986145 812.546021,606.281250 811.251587,597.556152 
	C809.611206,586.498779 807.899536,575.451965 806.217346,564.392090 
	C814.180115,563.544617 813.914185,563.652283 817.054443,571.406433 
	C822.227295,584.180054 828.827637,596.247437 838.117798,606.501770 
	C852.365051,622.227539 868.852539,634.900269 888.582153,643.364929 
	C904.594299,650.234680 921.236816,654.626709 938.341003,656.791870 
	C951.737061,658.487549 965.363953,658.359741 979.080994,659.539795 
	C979.424622,659.373840 979.768188,659.207947 981.034363,659.006348 
	C994.639221,658.007751 1008.294861,657.451965 1021.836487,655.901184 
	C1039.730713,653.851929 1056.675659,648.139648 1072.947510,640.511292 
	C1089.375366,632.809753 1104.192627,622.738220 1117.524048,609.886353 
	C1117.627197,609.597778 1117.730469,609.309204 1118.119873,608.398254 
	C1127.368774,599.645386 1134.815674,589.534363 1141.168213,578.516724 
	C1155.630737,553.433228 1161.856934,526.099182 1162.831421,497.520111 
	C1163.194824,486.862488 1162.389038,476.028168 1160.807373,465.470581 
	C1157.851685,445.743286 1151.794067,426.946808 1141.881714,409.423859 
	C1127.968994,384.829315 1108.790039,365.593323 1084.268677,351.744080 
	C1053.978271,334.636597 1021.274231,326.985870 986.550049,326.912933 
	C965.240417,326.868164 944.071899,327.420258 923.129578,331.950684 
	C895.523865,337.922607 870.479614,349.126801 849.455933,368.190948 
	C834.442261,381.805237 822.811279,398.107849 816.254639,417.387695 
	C814.206421,423.410583 811.117493,423.468018 806.084106,422.657898 
	C806.084106,421.323669 805.931641,420.021881 806.109680,418.766998 
	C807.026489,412.305542 808.119995,405.868378 808.979553,399.399811 
	C810.423828,388.530975 811.728210,377.643585 813.110107,366.766388 
	C814.408447,356.546753 815.730896,346.330139 817.532959,335.923096 
	C817.355347,335.670624 817.177734,335.418152 816.072144,335.025543 
M613.002197,1057.496826 
	C626.820007,1043.204346 637.995850,1027.225708 645.253235,1008.002075 
	C619.793396,1008.002075 595.138550,1007.966187 570.484619,1008.096741 
	C569.099426,1008.104065 567.293701,1009.144043 566.406006,1010.271912 
	C557.011230,1022.206970 545.551086,1031.693604 532.270508,1038.909180 
	C509.753357,1051.142944 485.166870,1056.516479 459.963196,1057.697388 
	C441.342102,1058.569824 422.554291,1057.187378 403.909180,1055.853516 
	C387.402588,1054.672729 371.535065,1049.916138 356.632385,1042.775757 
	C336.053986,1032.916016 319.175018,1018.590393 308.203186,998.260498 
	C304.893005,992.126953 303.033234,985.210693 300.197784,977.844360 
	C418.212402,977.844360 534.948669,977.844360 651.566345,977.844360 
	C652.065369,970.474426 653.016846,963.562744 652.880859,956.672546 
	C652.699280,947.468445 651.806396,938.269104 650.981323,929.089050 
	C649.520386,912.833618 644.550476,897.511292 637.391296,882.982666 
	C628.637024,865.216980 617.074158,849.574646 602.046753,836.345215 
	C586.011658,822.228699 568.034241,811.440308 548.500366,803.342407 
	C521.590210,792.186523 493.165192,786.517700 464.242218,785.285645 
	C436.188995,784.090576 407.992310,783.906372 380.092926,788.959534 
	C358.544586,792.862549 337.519318,798.523438 317.826172,808.134583 
	C293.111847,820.196228 271.140015,835.896973 254.273285,858.146912 
	C236.536606,881.544434 226.495514,907.887268 224.201309,936.967041 
	C223.307205,948.300171 224.350342,959.830383 225.068192,971.235779 
	C226.093170,987.520996 230.913361,1002.873962 237.912476,1017.539795 
	C246.534119,1035.605347 257.627686,1051.974121 273.308319,1064.615723 
	C283.317444,1072.685181 293.662445,1080.563965 304.714996,1087.070557 
	C337.785828,1106.539185 374.377136,1114.860229 412.186249,1116.677734 
	C437.749817,1117.906616 463.585602,1118.760132 489.030426,1113.951416 
	C503.242401,1111.265503 517.657959,1109.021118 531.433594,1104.791992 
	C561.914062,1095.434570 590.092041,1081.577637 613.002197,1057.496826 
M1608.996948,614.504395 
	C1618.476562,605.351990 1629.025391,597.061096 1637.229004,586.880432 
	C1659.024536,559.832153 1668.331055,528.034912 1668.878174,493.618195 
	C1669.016357,484.938385 1668.294800,476.124939 1666.838867,467.565033 
	C1663.910034,450.345398 1658.508545,433.901520 1649.935425,418.505676 
	C1634.538086,390.854645 1612.129517,370.712860 1584.530640,355.834381 
	C1566.066895,345.880615 1546.682617,338.258759 1526.149170,334.244965 
	C1509.818726,331.052704 1493.243896,327.890076 1476.690552,327.340881 
	C1451.095215,326.491730 1425.294800,325.232727 1399.865723,330.062042 
	C1384.705688,332.941071 1369.425903,335.646667 1354.642334,339.949677 
	C1328.536621,347.548126 1305.056885,360.346802 1284.219727,378.095154 
	C1270.254639,389.990265 1259.243896,404.042419 1250.553101,420.000702 
	C1241.334961,436.927368 1234.988159,454.911011 1234.119263,474.283905 
	C1233.469238,488.776337 1232.630859,503.496643 1234.406006,517.801575 
	C1236.607422,535.539917 1242.554565,552.483826 1251.566650,568.269592 
	C1262.334473,587.130432 1276.228760,603.173645 1293.724854,615.826782 
	C1313.642944,630.231384 1335.523926,640.859802 1359.247192,647.721436 
	C1380.852783,653.970520 1402.920044,657.996704 1425.255493,658.744080 
	C1455.449829,659.754517 1485.751099,660.092896 1515.666870,654.035522 
	C1535.331055,650.053955 1554.752930,645.193665 1572.633667,635.931213 
	C1584.900635,629.576660 1596.549561,622.028870 1608.996948,614.504395 
M547.529724,1252.000000 
	C545.865784,1252.000000 544.164856,1252.224243 542.544861,1251.957397 
	C537.972412,1251.204224 535.705872,1253.042603 533.751953,1257.335693 
	C527.665710,1270.707886 521.000183,1283.817505 514.499878,1296.999756 
	C500.843018,1324.694336 487.194092,1352.393066 473.455994,1380.047363 
	C460.874176,1405.374390 447.702240,1430.422607 435.748352,1456.040771 
	C430.296021,1467.725464 426.695129,1480.355835 423.123871,1492.806641 
	C420.899811,1500.560547 420.301941,1508.781006 418.962616,1516.862061 
	C411.012787,1517.242310 411.163147,1517.238037 410.933197,1509.160034 
	C410.826752,1505.421265 410.202820,1501.663696 409.472961,1497.982056 
	C405.085449,1475.851318 395.037506,1455.891113 385.346588,1435.817383 
	C371.931030,1408.028564 358.386292,1380.301880 344.855835,1352.568726 
	C336.261658,1334.953369 327.600281,1317.370728 318.955963,1299.779907 
	C311.124847,1283.843628 303.276184,1267.916016 295.474976,1252.065430 
	C264.990723,1252.065430 234.838364,1252.065430 204.320084,1252.065430 
	C204.916473,1253.406494 205.363983,1254.600342 205.957199,1255.716797 
	C210.393890,1264.066528 214.886993,1272.386353 219.310669,1280.743042 
	C232.061188,1304.829468 244.792328,1328.926270 257.521423,1353.023926 
	C266.819550,1370.626343 276.093567,1388.241699 285.394012,1405.842896 
	C297.744293,1429.215942 310.157166,1452.555908 322.455505,1475.956177 
	C334.150085,1498.207886 345.702179,1520.534180 357.380768,1542.794312 
	C361.167358,1550.011719 364.720856,1557.408325 369.173584,1564.203491 
	C373.636841,1571.014648 374.633514,1577.018433 368.457794,1583.134766 
	C367.904053,1583.683105 367.727264,1584.593262 367.289978,1585.281006 
	C358.347137,1599.347168 348.333984,1612.443848 334.422699,1622.093628 
	C324.578766,1628.922119 313.559540,1633.469604 301.862122,1634.306274 
	C286.646088,1635.394531 271.230255,1635.347412 256.018463,1634.210083 
	C246.986923,1633.534790 238.182495,1629.821777 229.199921,1627.454590 
	C229.199921,1649.163452 229.199921,1670.954224 229.199921,1693.833252 
	C242.555511,1696.551636 255.834320,1700.813721 269.319611,1701.619019 
	C287.710022,1702.717407 306.237946,1702.798096 324.677887,1699.190063 
	C352.209900,1693.803223 376.152191,1681.881348 396.553497,1662.851685 
	C409.096130,1651.152466 420.101624,1637.981567 429.068726,1623.392090 
	C440.494904,1604.801636 451.361145,1585.850586 461.953583,1566.769165 
	C471.692505,1549.225464 480.732910,1531.294312 490.109100,1513.548828 
	C503.300201,1488.582886 516.533813,1463.639404 529.717529,1438.669556 
	C538.858582,1421.356567 547.939209,1404.011475 557.059021,1386.687134 
	C570.057373,1361.994873 583.052063,1337.300659 596.078003,1312.622681 
	C602.020569,1301.364502 608.075378,1290.165527 614.001831,1278.899048 
	C618.622559,1270.114990 623.123901,1261.268066 627.910217,1252.000000 
	C601.076599,1252.000000 574.797852,1252.000000 547.529724,1252.000000 
M1674.425781,1438.061401 
	C1673.650146,1437.374634 1672.876953,1436.090820 1672.098633,1436.087524 
	C1646.948486,1435.982544 1621.797607,1436.001099 1596.482056,1436.001099 
	C1592.773926,1447.630005 1588.536987,1458.660034 1580.569458,1468.197266 
	C1567.625122,1483.691650 1551.786133,1494.659058 1533.179443,1502.061523 
	C1517.423218,1508.329712 1500.906860,1512.019897 1484.204834,1512.661987 
	C1465.234619,1513.391357 1446.028564,1512.818481 1427.185181,1510.601318 
	C1409.729858,1508.547241 1393.105591,1502.249756 1377.702759,1493.306519 
	C1357.424805,1481.532715 1342.545288,1464.964355 1334.162109,1443.075317 
	C1328.293335,1427.751587 1327.591187,1411.692993 1329.973877,1395.494751 
	C1333.867798,1369.023071 1347.666016,1348.766724 1369.112671,1333.399048 
	C1391.830811,1317.119873 1417.818481,1309.807617 1445.182983,1308.299194 
	C1462.286377,1307.356445 1479.600708,1308.719971 1496.728394,1310.150879 
	C1515.380005,1311.709106 1533.037476,1317.267700 1549.365601,1326.727417 
	C1572.778564,1340.291626 1590.229248,1358.567505 1596.409790,1385.679443 
	C1622.688965,1385.679443 1648.757812,1385.679443 1675.078247,1385.679443 
	C1674.669434,1383.742554 1674.329712,1382.165527 1674.005127,1380.585571 
	C1673.677856,1378.993774 1673.345337,1377.402710 1673.050049,1375.804810 
	C1666.460327,1340.149902 1647.575928,1311.837524 1619.744873,1289.564453 
	C1600.543701,1274.197754 1578.508667,1263.692383 1554.921997,1256.355225 
	C1533.122314,1249.573608 1510.809204,1245.123291 1488.164795,1244.285645 
	C1459.141235,1243.212280 1430.023438,1242.971680 1401.219360,1248.868042 
	C1381.030762,1253.000854 1361.413940,1258.618042 1342.891113,1267.635864 
	C1322.642212,1277.494019 1304.651245,1290.454224 1289.277344,1307.088867 
	C1279.844971,1317.294800 1272.213013,1328.693604 1266.190796,1341.021851 
	C1258.588379,1356.585571 1253.567139,1373.027588 1251.876953,1390.472656 
	C1250.225220,1407.520630 1250.168213,1424.529907 1253.313110,1441.292603 
	C1256.506104,1458.312378 1262.632446,1474.399292 1271.668457,1489.369995 
	C1281.900024,1506.321899 1294.816650,1520.834839 1310.516846,1532.706543 
	C1324.854370,1543.547607 1340.549561,1552.200439 1357.354126,1558.743530 
	C1384.226440,1569.206909 1412.220337,1574.875977 1440.888428,1575.741943 
	C1462.208374,1576.385864 1483.649170,1575.334351 1504.940430,1573.750732 
	C1517.691528,1572.802368 1530.463867,1570.148315 1542.850708,1566.849121 
	C1555.514648,1563.476074 1567.894531,1558.815308 1580.082520,1553.929321 
	C1596.854980,1547.205688 1612.142334,1537.700928 1625.650757,1525.713745 
	C1642.919434,1510.390015 1657.356689,1492.691284 1665.434692,1470.785889 
	C1669.233154,1460.485352 1671.246704,1449.526611 1674.425781,1438.061401 
M636.000000,556.500000 
	C636.000000,482.750366 636.000000,409.000732 636.000000,335.380310 
	C504.269745,335.380310 373.221466,335.380310 242.245422,335.380310 
	C242.245422,441.026031 242.245422,546.291260 242.245422,651.705322 
	C268.212982,651.705322 293.934265,651.705322 320.165771,651.705322 
	C320.165771,567.693054 320.165771,483.974030 320.165771,400.382812 
	C399.729248,400.382812 478.780884,400.382812 558.165405,400.382812 
	C558.165405,484.365601 558.165405,567.966003 558.165405,651.700806 
	C584.222107,651.700806 609.943420,651.700806 636.000000,651.700806 
	C636.000000,620.101929 636.000000,588.800964 636.000000,556.500000 
M1486.500000,793.000000 
	C1429.417114,793.000000 1372.334106,793.000000 1315.389160,793.000000 
	C1315.389160,815.072021 1315.389160,836.461060 1315.389160,858.179626 
	C1364.379517,858.179626 1412.981323,858.179626 1462.088867,858.179626 
	C1462.088867,941.897339 1462.088867,1025.280884 1462.088867,1108.653076 
	C1488.319824,1108.653076 1514.040894,1108.653076 1540.267090,1108.653076 
	C1540.267090,1024.923462 1540.267090,941.539856 1540.267090,857.823608 
	C1589.376343,857.823608 1637.978149,857.823608 1686.695068,857.823608 
	C1686.695068,836.098755 1686.695068,814.711060 1686.695068,793.000000 
	C1620.093750,793.000000 1553.796875,793.000000 1486.500000,793.000000 
z"/>
<path fill="#00B0F2" opacity="1.000000" stroke="none" 
	d="
M978.888245,659.042053 
	C965.363953,658.359741 951.737061,658.487549 938.341003,656.791870 
	C921.236816,654.626709 904.594299,650.234680 888.582153,643.364929 
	C868.852539,634.900269 852.365051,622.227539 838.117798,606.501770 
	C828.827637,596.247437 822.227295,584.180054 817.054443,571.406433 
	C813.914185,563.652283 814.180115,563.544617 806.217346,564.392090 
	C807.899536,575.451965 809.611206,586.498779 811.251587,597.556152 
	C812.546021,606.281250 814.098816,614.986145 814.941223,623.757202 
	C819.618042,672.452759 817.597412,721.298218 817.728394,770.646973 
	C817.264160,771.366699 817.109314,771.576599 817.018066,771.833435 
	C791.981995,771.880371 766.945862,771.927307 741.353027,771.728394 
	C740.633301,771.264160 740.423401,771.109314 740.166626,771.018066 
	C740.111206,770.022583 740.007202,769.027039 740.007202,768.031555 
	C740.008423,624.324280 740.017212,480.617035 740.271606,336.352966 
	C740.736023,335.633301 740.890808,335.423462 740.981934,335.166595 
	C766.012024,335.119568 791.042053,335.072540 816.542480,335.332367 
	C817.012817,335.639191 817.042664,336.112213 817.042664,336.112213 
	C815.730896,346.330139 814.408447,356.546753 813.110107,366.766388 
	C811.728210,377.643585 810.423828,388.530975 808.979553,399.399811 
	C808.119995,405.868378 807.026489,412.305542 806.109680,418.766998 
	C805.931641,420.021881 806.084106,421.323669 806.084106,422.657898 
	C811.117493,423.468018 814.206421,423.410583 816.254639,417.387695 
	C822.811279,398.107849 834.442261,381.805237 849.455933,368.190948 
	C870.479614,349.126801 895.523865,337.922607 923.129578,331.950684 
	C944.071899,327.420258 965.240417,326.868164 986.550049,326.912933 
	C1021.274231,326.985870 1053.978271,334.636597 1084.268677,351.744080 
	C1108.790039,365.593323 1127.968994,384.829315 1141.881714,409.423859 
	C1151.794067,426.946808 1157.851685,445.743286 1160.807373,465.470581 
	C1162.389038,476.028168 1163.194824,486.862488 1162.831421,497.520111 
	C1161.856934,526.099182 1155.630737,553.433228 1141.168213,578.516724 
	C1134.815674,589.534363 1127.368774,599.645386 1117.801270,608.801025 
	C1117.263916,609.366638 1117.109009,609.576538 1117.017822,609.833435 
	C1104.192627,622.738220 1089.375366,632.809753 1072.947510,640.511292 
	C1056.675659,648.139648 1039.730713,653.851929 1021.836487,655.901184 
	C1008.294861,657.451965 994.639221,658.007751 980.267090,659.012817 
	C979.295898,659.026917 979.092041,659.034485 978.888245,659.042053 
M819.998840,512.415527 
	C820.895447,516.038574 821.555237,519.740173 822.726379,523.272156 
	C831.271301,549.042175 848.564331,567.312683 872.106873,579.979675 
	C890.660278,589.962219 910.978333,594.259644 931.663696,595.737488 
	C945.990051,596.760986 960.493103,595.410950 974.913452,594.990723 
	C989.575012,594.563599 1003.638000,590.914246 1017.240112,585.831543 
	C1036.488281,578.639038 1053.099121,567.279236 1065.523682,550.776978 
	C1082.186279,528.645874 1087.287109,503.267548 1082.790405,476.338745 
	C1078.348022,449.735687 1063.867432,429.144775 1041.620605,413.900116 
	C1019.947998,399.048920 995.403381,392.751343 969.784241,391.288727 
	C953.017090,390.331512 936.095581,390.152283 919.220215,392.804565 
	C900.175537,395.797760 881.960449,400.632202 865.508057,410.889771 
	C847.079773,422.379211 832.899963,437.537811 824.865967,458.105042 
	C821.315002,467.195435 818.763000,476.394592 818.956177,486.175018 
	C819.123169,494.631104 819.628174,503.080475 819.998840,512.415527 
z"/>
<path fill="#00B0F2" opacity="1.000000" stroke="none" 
	d="
M612.752441,1057.747314 
	C590.092041,1081.577637 561.914062,1095.434570 531.433594,1104.791992 
	C517.657959,1109.021118 503.242401,1111.265503 489.030426,1113.951416 
	C463.585602,1118.760132 437.749817,1117.906616 412.186249,1116.677734 
	C374.377136,1114.860229 337.785828,1106.539185 304.714996,1087.070557 
	C293.662445,1080.563965 283.317444,1072.685181 273.308319,1064.615723 
	C257.627686,1051.974121 246.534119,1035.605347 237.912476,1017.539795 
	C230.913361,1002.873962 226.093170,987.520996 225.068192,971.235779 
	C224.350342,959.830383 223.307205,948.300171 224.201309,936.967041 
	C226.495514,907.887268 236.536606,881.544434 254.273285,858.146912 
	C271.140015,835.896973 293.111847,820.196228 317.826172,808.134583 
	C337.519318,798.523438 358.544586,792.862549 380.092926,788.959534 
	C407.992310,783.906372 436.188995,784.090576 464.242218,785.285645 
	C493.165192,786.517700 521.590210,792.186523 548.500366,803.342407 
	C568.034241,811.440308 586.011658,822.228699 602.046753,836.345215 
	C617.074158,849.574646 628.637024,865.216980 637.391296,882.982666 
	C644.550476,897.511292 649.520386,912.833618 650.981323,929.089050 
	C651.806396,938.269104 652.699280,947.468445 652.880859,956.672546 
	C653.016846,963.562744 652.065369,970.474426 651.566345,977.844360 
	C534.948669,977.844360 418.212402,977.844360 300.197784,977.844360 
	C303.033234,985.210693 304.893005,992.126953 308.203186,998.260498 
	C319.175018,1018.590393 336.053986,1032.916016 356.632385,1042.775757 
	C371.535065,1049.916138 387.402588,1054.672729 403.909180,1055.853516 
	C422.554291,1057.187378 441.342102,1058.569824 459.963196,1057.697388 
	C485.166870,1056.516479 509.753357,1051.142944 532.270508,1038.909180 
	C545.551086,1031.693604 557.011230,1022.206970 566.406006,1010.271912 
	C567.293701,1009.144043 569.099426,1008.104065 570.484619,1008.096741 
	C595.138550,1007.966187 619.793396,1008.002075 645.253235,1008.002075 
	C637.995850,1027.225708 626.820007,1043.204346 612.752441,1057.747314 
M316.991241,890.511597 
	C308.459930,901.494568 302.977478,913.861816 299.812836,927.731689 
	C392.291656,927.731689 484.370361,927.731689 576.437622,927.731689 
	C571.305054,903.042053 558.620117,885.371399 537.792114,870.013794 
	C514.100708,852.545044 486.527710,846.113159 457.895050,844.233276 
	C442.887360,843.247925 427.714783,844.473938 412.630035,845.050476 
	C398.690033,845.583313 385.158661,848.653076 371.973511,853.084900 
	C350.421082,860.329224 331.732483,871.898499 316.991241,890.511597 
z"/>
<path fill="#00B0F2" opacity="1.000000" stroke="none" 
	d="
M1608.735840,614.759399 
	C1596.549561,622.028870 1584.900635,629.576660 1572.633667,635.931213 
	C1554.752930,645.193665 1535.331055,650.053955 1515.666870,654.035522 
	C1485.751099,660.092896 1455.449829,659.754517 1425.255493,658.744080 
	C1402.920044,657.996704 1380.852783,653.970520 1359.247192,647.721436 
	C1335.523926,640.859802 1313.642944,630.231384 1293.724854,615.826782 
	C1276.228760,603.173645 1262.334473,587.130432 1251.566650,568.269592 
	C1242.554565,552.483826 1236.607422,535.539917 1234.406006,517.801575 
	C1232.630859,503.496643 1233.469238,488.776337 1234.119263,474.283905 
	C1234.988159,454.911011 1241.334961,436.927368 1250.553101,420.000702 
	C1259.243896,404.042419 1270.254639,389.990265 1284.219727,378.095154 
	C1305.056885,360.346802 1328.536621,347.548126 1354.642334,339.949677 
	C1369.425903,335.646667 1384.705688,332.941071 1399.865723,330.062042 
	C1425.294800,325.232727 1451.095215,326.491730 1476.690552,327.340881 
	C1493.243896,327.890076 1509.818726,331.052704 1526.149170,334.244965 
	C1546.682617,338.258759 1566.066895,345.880615 1584.530640,355.834381 
	C1612.129517,370.712860 1634.538086,390.854645 1649.935425,418.505676 
	C1658.508545,433.901520 1663.910034,450.345398 1666.838867,467.565033 
	C1668.294800,476.124939 1669.016357,484.938385 1668.878174,493.618195 
	C1668.331055,528.034912 1659.024536,559.832153 1637.229004,586.880432 
	C1629.025391,597.061096 1618.476562,605.351990 1608.735840,614.759399 
M1339.020874,560.528076 
	C1340.564941,561.738708 1342.171021,562.878540 1343.643066,564.171265 
	C1354.459229,573.670227 1366.957642,580.168152 1380.379150,585.129211 
	C1395.152344,590.589783 1410.302002,594.534058 1426.062988,594.904663 
	C1444.571411,595.339783 1463.166992,595.953613 1481.596802,594.662903 
	C1497.131104,593.575073 1512.288818,589.103516 1526.750977,582.958374 
	C1545.338867,575.060059 1561.985107,564.154846 1573.628784,547.469238 
	C1588.428345,526.261353 1593.901978,502.630066 1589.116089,476.765259 
	C1583.386719,445.801300 1565.402710,424.442749 1538.355957,409.720337 
	C1517.178223,398.192657 1494.233887,392.517578 1470.504639,391.242767 
	C1443.848999,389.810699 1417.046387,390.121399 1391.129517,398.101593 
	C1367.826172,405.277100 1346.862427,416.250122 1330.861084,435.508972 
	C1313.808838,456.032410 1308.669678,479.940277 1311.260254,505.516296 
	C1313.412231,526.763245 1322.974487,545.076294 1339.020874,560.528076 
z"/>
<path fill="#00B0F2" opacity="1.000000" stroke="none" 
	d="
M548.024414,1252.000000 
	C574.797852,1252.000000 601.076599,1252.000000 627.910217,1252.000000 
	C623.123901,1261.268066 618.622559,1270.114990 614.001831,1278.899048 
	C608.075378,1290.165527 602.020569,1301.364502 596.078003,1312.622681 
	C583.052063,1337.300659 570.057373,1361.994873 557.059021,1386.687134 
	C547.939209,1404.011475 538.858582,1421.356567 529.717529,1438.669556 
	C516.533813,1463.639404 503.300201,1488.582886 490.109100,1513.548828 
	C480.732910,1531.294312 471.692505,1549.225464 461.953583,1566.769165 
	C451.361145,1585.850586 440.494904,1604.801636 429.068726,1623.392090 
	C420.101624,1637.981567 409.096130,1651.152466 396.553497,1662.851685 
	C376.152191,1681.881348 352.209900,1693.803223 324.677887,1699.190063 
	C306.237946,1702.798096 287.710022,1702.717407 269.319611,1701.619019 
	C255.834320,1700.813721 242.555511,1696.551636 229.199921,1693.833252 
	C229.199921,1670.954224 229.199921,1649.163452 229.199921,1627.454590 
	C238.182495,1629.821777 246.986923,1633.534790 256.018463,1634.210083 
	C271.230255,1635.347412 286.646088,1635.394531 301.862122,1634.306274 
	C313.559540,1633.469604 324.578766,1628.922119 334.422699,1622.093628 
	C348.333984,1612.443848 358.347137,1599.347168 367.289978,1585.281006 
	C367.727264,1584.593262 367.904053,1583.683105 368.457794,1583.134766 
	C374.633514,1577.018433 373.636841,1571.014648 369.173584,1564.203491 
	C364.720856,1557.408325 361.167358,1550.011719 357.380768,1542.794312 
	C345.702179,1520.534180 334.150085,1498.207886 322.455505,1475.956177 
	C310.157166,1452.555908 297.744293,1429.215942 285.394012,1405.842896 
	C276.093567,1388.241699 266.819550,1370.626343 257.521423,1353.023926 
	C244.792328,1328.926270 232.061188,1304.829468 219.310669,1280.743042 
	C214.886993,1272.386353 210.393890,1264.066528 205.957199,1255.716797 
	C205.363983,1254.600342 204.916473,1253.406494 204.320084,1252.065430 
	C234.838364,1252.065430 264.990723,1252.065430 295.474976,1252.065430 
	C303.276184,1267.916016 311.124847,1283.843628 318.955963,1299.779907 
	C327.600281,1317.370728 336.261658,1334.953369 344.855835,1352.568726 
	C358.386292,1380.301880 371.931030,1408.028564 385.346588,1435.817383 
	C395.037506,1455.891113 405.085449,1475.851318 409.472961,1497.982056 
	C410.202820,1501.663696 410.826752,1505.421265 410.933197,1509.160034 
	C411.163147,1517.238037 411.012787,1517.242310 418.962616,1516.862061 
	C420.301941,1508.781006 420.899811,1500.560547 423.123871,1492.806641 
	C426.695129,1480.355835 430.296021,1467.725464 435.748352,1456.040771 
	C447.702240,1430.422607 460.874176,1405.374390 473.455994,1380.047363 
	C487.194092,1352.393066 500.843018,1324.694336 514.499878,1296.999756 
	C521.000183,1283.817505 527.665710,1270.707886 533.751953,1257.335693 
	C535.705872,1253.042603 537.972412,1251.204224 542.544861,1251.957397 
	C544.164856,1252.224243 545.865784,1252.000000 548.024414,1252.000000 
z"/>
<path fill="#00B0F2" opacity="1.000000" stroke="none" 
	d="
M1674.247437,1438.463867 
	C1671.246704,1449.526611 1669.233154,1460.485352 1665.434692,1470.785889 
	C1657.356689,1492.691284 1642.919434,1510.390015 1625.650757,1525.713745 
	C1612.142334,1537.700928 1596.854980,1547.205688 1580.082520,1553.929321 
	C1567.894531,1558.815308 1555.514648,1563.476074 1542.850708,1566.849121 
	C1530.463867,1570.148315 1517.691528,1572.802368 1504.940430,1573.750732 
	C1483.649170,1575.334351 1462.208374,1576.385864 1440.888428,1575.741943 
	C1412.220337,1574.875977 1384.226440,1569.206909 1357.354126,1558.743530 
	C1340.549561,1552.200439 1324.854370,1543.547607 1310.516846,1532.706543 
	C1294.816650,1520.834839 1281.900024,1506.321899 1271.668457,1489.369995 
	C1262.632446,1474.399292 1256.506104,1458.312378 1253.313110,1441.292603 
	C1250.168213,1424.529907 1250.225220,1407.520630 1251.876953,1390.472656 
	C1253.567139,1373.027588 1258.588379,1356.585571 1266.190796,1341.021851 
	C1272.213013,1328.693604 1279.844971,1317.294800 1289.277344,1307.088867 
	C1304.651245,1290.454224 1322.642212,1277.494019 1342.891113,1267.635864 
	C1361.413940,1258.618042 1381.030762,1253.000854 1401.219360,1248.868042 
	C1430.023438,1242.971680 1459.141235,1243.212280 1488.164795,1244.285645 
	C1510.809204,1245.123291 1533.122314,1249.573608 1554.921997,1256.355225 
	C1578.508667,1263.692383 1600.543701,1274.197754 1619.744873,1289.564453 
	C1647.575928,1311.837524 1666.460327,1340.149902 1673.050049,1375.804810 
	C1673.345337,1377.402710 1673.677856,1378.993774 1674.005127,1380.585571 
	C1674.329712,1382.165527 1674.669434,1383.742554 1675.078247,1385.679443 
	C1648.757812,1385.679443 1622.688965,1385.679443 1596.409790,1385.679443 
	C1590.229248,1358.567505 1572.778564,1340.291626 1549.365601,1326.727417 
	C1533.037476,1317.267700 1515.380005,1311.709106 1496.728394,1310.150879 
	C1479.600708,1308.719971 1462.286377,1307.356445 1445.182983,1308.299194 
	C1417.818481,1309.807617 1391.830811,1317.119873 1369.112671,1333.399048 
	C1347.666016,1348.766724 1333.867798,1369.023071 1329.973877,1395.494751 
	C1327.591187,1411.692993 1328.293335,1427.751587 1334.162109,1443.075317 
	C1342.545288,1464.964355 1357.424805,1481.532715 1377.702759,1493.306519 
	C1393.105591,1502.249756 1409.729858,1508.547241 1427.185181,1510.601318 
	C1446.028564,1512.818481 1465.234619,1513.391357 1484.204834,1512.661987 
	C1500.906860,1512.019897 1517.423218,1508.329712 1533.179443,1502.061523 
	C1551.786133,1494.659058 1567.625122,1483.691650 1580.569458,1468.197266 
	C1588.536987,1458.660034 1592.773926,1447.630005 1596.482056,1436.001099 
	C1621.797607,1436.001099 1646.948486,1435.982544 1672.098633,1436.087524 
	C1672.876953,1436.090820 1673.650146,1437.374634 1674.247437,1438.463867 
z"/>
<path fill="#00B0F2" opacity="1.000000" stroke="none" 
	d="
M636.000000,557.000000 
	C636.000000,588.800964 636.000000,620.101929 636.000000,651.700806 
	C609.943420,651.700806 584.222107,651.700806 558.165405,651.700806 
	C558.165405,567.966003 558.165405,484.365601 558.165405,400.382812 
	C478.780884,400.382812 399.729248,400.382812 320.165771,400.382812 
	C320.165771,483.974030 320.165771,567.693054 320.165771,651.705322 
	C293.934265,651.705322 268.212982,651.705322 242.245422,651.705322 
	C242.245422,546.291260 242.245422,441.026031 242.245422,335.380310 
	C373.221466,335.380310 504.269745,335.380310 636.000000,335.380310 
	C636.000000,409.000732 636.000000,482.750366 636.000000,557.000000 
z"/>
<path fill="#00B0F2" opacity="1.000000" stroke="none" 
	d="
M1210.999023,1109.834229 
	C1175.676636,1109.889526 1140.353516,1110.038940 1105.032837,1109.810059 
	C1102.395386,1109.792969 1099.482544,1107.423828 1097.198975,1105.540527 
	C1087.944458,1097.908447 1078.945190,1089.967651 1069.739746,1082.275024 
	C1058.669678,1073.024048 1047.456299,1063.944702 1036.360352,1054.724609 
	C1027.644043,1047.481812 1019.035461,1040.109619 1010.336060,1032.846436 
	C998.624939,1023.068970 986.844788,1013.374146 975.145813,1003.582214 
	C964.314331,994.516541 953.541992,985.380127 942.759827,976.255676 
	C933.855347,968.720154 924.985901,961.143005 916.061646,953.630920 
	C915.354248,953.035461 914.339722,952.804871 913.074646,952.224121 
	C913.074646,1004.870544 913.074646,1057.097290 913.074646,1109.661377 
	C887.025635,1109.661377 861.306091,1109.661377 835.292542,1109.661377 
	C835.292542,1004.276367 835.292542,898.902100 835.292542,793.263794 
	C861.006409,793.263794 886.608276,793.263794 912.830444,793.263794 
	C912.830444,840.980286 912.830444,888.821594 912.830444,938.080933 
	C920.279236,932.323730 926.702393,927.436707 933.041748,922.443359 
	C946.287109,912.010376 959.476685,901.506531 972.711060,891.059509 
	C984.778015,881.534058 996.886230,872.060974 1008.953369,862.535645 
	C1020.519470,853.405823 1032.038818,844.216858 1043.610229,835.093628 
	C1055.680542,825.576904 1067.800903,816.123352 1079.874023,806.610046 
	C1085.019531,802.555542 1090.032227,798.328125 1095.263672,794.389526 
	C1096.467773,793.483032 1098.321655,793.059937 1099.877930,793.056641 
	C1134.350708,792.983398 1168.823486,793.000610 1203.777954,793.713623 
	C1171.934937,819.820435 1138.814819,844.218384 1106.186279,869.237549 
	C1073.561401,894.253967 1040.718628,918.986145 1007.639893,944.094482 
	C1017.301575,951.878662 1026.703491,959.439575 1036.089966,967.019714 
	C1047.307129,976.078125 1058.505127,985.160217 1069.722168,994.218872 
	C1080.302490,1002.763367 1090.884766,1011.305481 1101.488281,1019.821228 
	C1111.186279,1027.609741 1120.901123,1035.377319 1130.631714,1043.124878 
	C1141.510742,1051.786621 1152.454956,1060.366821 1163.298706,1069.072144 
	C1174.419189,1077.999512 1185.437500,1087.054321 1196.531006,1096.015259 
	C1201.235107,1099.814941 1206.017212,1103.517944 1210.888306,1107.900635 
	C1211.008179,1108.968750 1211.003540,1109.401489 1210.999023,1109.834229 
z"/>
<path fill="#00B0F2" opacity="1.000000" stroke="none" 
	d="
M1487.000000,793.000000 
	C1553.796875,793.000000 1620.093750,793.000000 1686.695068,793.000000 
	C1686.695068,814.711060 1686.695068,836.098755 1686.695068,857.823608 
	C1637.978149,857.823608 1589.376343,857.823608 1540.267090,857.823608 
	C1540.267090,941.539856 1540.267090,1024.923462 1540.267090,1108.653076 
	C1514.040894,1108.653076 1488.319824,1108.653076 1462.088867,1108.653076 
	C1462.088867,1025.280884 1462.088867,941.897339 1462.088867,858.179626 
	C1412.981323,858.179626 1364.379517,858.179626 1315.389160,858.179626 
	C1315.389160,836.461060 1315.389160,815.072021 1315.389160,793.000000 
	C1372.334106,793.000000 1429.417114,793.000000 1487.000000,793.000000 
z"/>
<path fill="#00B0F2" opacity="1.000000" stroke="none" 
	d="
M1211.305664,1109.819092 
	C1211.003540,1109.401489 1211.008179,1108.968750 1211.027588,1108.211426 
	C1211.232300,1108.525879 1211.422241,1109.164917 1211.305664,1109.819092 
z"/>
<path fill="#00B0F2" opacity="1.000000" stroke="none" 
	d="
M1117.270996,609.859863 
	C1117.109009,609.576538 1117.263916,609.366638 1117.658081,609.112183 
	C1117.730469,609.309204 1117.627197,609.597778 1117.270996,609.859863 
z"/>
<path fill="#00B0F2" opacity="1.000000" stroke="none" 
	d="
M978.984619,659.290894 
	C979.092041,659.034485 979.295898,659.026917 979.805786,659.030701 
	C979.768188,659.207947 979.424622,659.373840 978.984619,659.290894 
z"/>
<path fill="#00B0F2" opacity="1.000000" stroke="none" 
	d="
M740.140198,771.271118 
	C740.423401,771.109314 740.633301,771.264160 740.887817,771.657959 
	C740.690857,771.730347 740.402344,771.627258 740.140198,771.271118 
z"/>
<path fill="#00B0F2" opacity="1.000000" stroke="none" 
	d="
M817.271118,771.859802 
	C817.109314,771.576599 817.264160,771.366699 817.657959,771.112183 
	C817.730286,771.309143 817.627197,771.597656 817.271118,771.859802 
z"/>
<path fill="#00B0F2" opacity="1.000000" stroke="none" 
	d="
M817.287842,336.017639 
	C817.042664,336.112213 817.012817,335.639191 817.006470,335.402435 
	C817.177734,335.418152 817.355347,335.670624 817.287842,336.017639 
z"/>
<path fill="#00B0F2" opacity="1.000000" stroke="none" 
	d="
M740.728821,335.140137 
	C740.890808,335.423462 740.736023,335.633301 740.341980,335.887756 
	C740.269592,335.690765 740.372681,335.402222 740.728821,335.140137 
z"/>
<path fill="#FFFFFF" opacity="1.000000" stroke="none" 
	d="
M819.991333,511.974182 
	C819.628174,503.080475 819.123169,494.631104 818.956177,486.175018 
	C818.763000,476.394592 821.315002,467.195435 824.865967,458.105042 
	C832.899963,437.537811 847.079773,422.379211 865.508057,410.889771 
	C881.960449,400.632202 900.175537,395.797760 919.220215,392.804565 
	C936.095581,390.152283 953.017090,390.331512 969.784241,391.288727 
	C995.403381,392.751343 1019.947998,399.048920 1041.620605,413.900116 
	C1063.867432,429.144775 1078.348022,449.735687 1082.790405,476.338745 
	C1087.287109,503.267548 1082.186279,528.645874 1065.523682,550.776978 
	C1053.099121,567.279236 1036.488281,578.639038 1017.240112,585.831543 
	C1003.638000,590.914246 989.575012,594.563599 974.913452,594.990723 
	C960.493103,595.410950 945.990051,596.760986 931.663696,595.737488 
	C910.978333,594.259644 890.660278,589.962219 872.106873,579.979675 
	C848.564331,567.312683 831.271301,549.042175 822.726379,523.272156 
	C821.555237,519.740173 820.895447,516.038574 819.991333,511.974182 
z"/>
<path fill="#FFFFFF" opacity="1.000000" stroke="none" 
	d="
M317.247375,890.254700 
	C331.732483,871.898499 350.421082,860.329224 371.973511,853.084900 
	C385.158661,848.653076 398.690033,845.583313 412.630035,845.050476 
	C427.714783,844.473938 442.887360,843.247925 457.895050,844.233276 
	C486.527710,846.113159 514.100708,852.545044 537.792114,870.013794 
	C558.620117,885.371399 571.305054,903.042053 576.437622,927.731689 
	C484.370361,927.731689 392.291656,927.731689 299.812836,927.731689 
	C302.977478,913.861816 308.459930,901.494568 317.247375,890.254700 
z"/>
<path fill="#FFFFFF" opacity="1.000000" stroke="none" 
	d="
M1338.770264,560.270935 
	C1322.974487,545.076294 1313.412231,526.763245 1311.260254,505.516296 
	C1308.669678,479.940277 1313.808838,456.032410 1330.861084,435.508972 
	C1346.862427,416.250122 1367.826172,405.277100 1391.129517,398.101593 
	C1417.046387,390.121399 1443.848999,389.810699 1470.504639,391.242767 
	C1494.233887,392.517578 1517.178223,398.192657 1538.355957,409.720337 
	C1565.402710,424.442749 1583.386719,445.801300 1589.116089,476.765259 
	C1593.901978,502.630066 1588.428345,526.261353 1573.628784,547.469238 
	C1561.985107,564.154846 1545.338867,575.060059 1526.750977,582.958374 
	C1512.288818,589.103516 1497.131104,593.575073 1481.596802,594.662903 
	C1463.166992,595.953613 1444.571411,595.339783 1426.062988,594.904663 
	C1410.302002,594.534058 1395.152344,590.589783 1380.379150,585.129211 
	C1366.957642,580.168152 1354.459229,573.670227 1343.643066,564.171265 
	C1342.171021,562.878540 1340.564941,561.738708 1338.770264,560.270935 
z"/>
</svg>